<?xml version="1.0" encoding="utf-8"?>
<!-- Generator: Adobe Illustrator 24.1.0, SVG Export Plug-In . SVG Version: 6.00 Build 0)  -->
<svg version="1.1" id="Слой_1" xmlns="http://www.w3.org/2000/svg" xmlns:xlink="http://www.w3.org/1999/xlink" x="0px" y="0px"
	 viewBox="0 0 653 232.1" style="enable-background:new 0 0 653 232.1;" xml:space="preserve">
<style type="text/css">
	.st0{fill:#0098DA;}
	.st1{fill:#FEFEFE;}
</style>
<g id="Camada_x0020_1">
	<g id="_2393628275488">
		<path class="st0" d="M260.7,134.7h-0.3l0,0l0,0c-9.6,0-18.3-3.8-24.7-10.1c-6.3-6.2-10.2-14.8-10.3-24.2v0v-0.3v0h0
			c0-9.1,3.6-17.5,9.5-23.6c5-5.3,11.7-9,19.2-10.4c2.2-4.8,5.6-8.9,9.9-12c5.3-3.8,11.7-6.1,18.7-6.1c1.2,0,2.6,0.1,3.9,0.2
			c3.7-8.2,9.6-15.2,16.9-20.4c8.6-6.2,19.3-9.8,30.7-9.8c7.5,0,14.6,1.5,21,4.3h-12.4c-5.1,0-9.3,3.6-10.3,8.3
			c-8.1,0.3-15.5,3-21.6,7.3c-6.6,4.7-11.7,11.5-14.3,19.2c0,0.1-0.1,0.2-0.1,0.3c-1.1,3.3-4.7,5.1-8.1,4c-1-0.3-2-0.5-2.9-0.7
			c-0.9-0.1-1.9-0.2-3-0.2c-4.2,0-8,1.3-11.1,3.6c-3.2,2.3-5.6,5.6-6.8,9.4l0,0c-0.7,2.4-2.9,4.3-5.7,4.5c-5.9,0.4-11.1,3-14.9,7
			c-3.7,3.9-6,9.2-6,15.1h0v0.2l0,0c0.1,6,2.6,11.5,6.6,15.5c4,3.9,9.5,6.4,15.6,6.4l0,0h0.2l0,0h21.7v-0.1h102v0.1l5,0
			c7.1-1.3,13.5-4.2,18.2-8.8c4.6-4.5,7.5-10.8,7.5-17.7c0-7-2.9-13.3-7.5-17.8c-4.6-4.6-11-7.4-18.1-7.4c-1.4,0-2.6,0.1-3.9,0.3
			c-1.2,0.2-2.3,0.4-3.3,0.7c-0.5,0.2-1.1,0.3-1.7,0.4c-3.5,0.3-6.6-2.3-6.9-5.8c-0.2-2.3-0.6-4.5-1.1-6.6c1.9-1.9,3.1-4.5,3.1-7.3
			V38.4c0.4,0.5,0.8,0.9,1.3,1.2c4,5.5,6.9,11.8,8.4,18.6c1.4-0.2,2.7-0.2,4.1-0.2c10.6,0,20.2,4.2,27.2,11.1
			c6.9,6.8,11.3,16.3,11.3,26.7c0,10.4-4.3,19.8-11.2,26.6c-6.9,6.8-16.5,11-27.2,12.4h-5h-27h-28.2c0,7.4-0.1,20.3-0.6,20.3
			c0,0-11.3-13-18.7-20.3h-13.8h-13.8H260.7L260.7,134.7z"/>
		<path class="st1" d="M342.9,25.6H365c3.8,0,7,3.1,7,6.9v19.7c0,3.8-3.1,6.9-7,6.9h-22.1c-3.8,0-7-3.1-7-6.9V32.5
			C335.9,28.7,339,25.6,342.9,25.6z M358.6,10.1h5.2c0.9,0,1.7,0.7,1.7,1.6v4.7c0,0.9-0.8,1.6-1.7,1.6h-5.2c-0.9,0-1.7-0.7-1.7-1.6
			v-4.7C357,10.9,357.7,10.1,358.6,10.1z M373.4,0h13c2.3,0,4.1,1.8,4.1,4v11.6c0,2.2-1.8,4.1-4.1,4.1h-13c-2.3,0-4.1-1.8-4.1-4.1V4
			C369.3,1.8,371.1,0,373.4,0z M380.3,24.2h8.6c1.5,0,2.7,1.2,2.7,2.6v7.6c0,1.5-1.2,2.7-2.7,2.7h-8.6c-1.5,0-2.7-1.2-2.7-2.7v-7.6
			C377.6,25.4,378.8,24.2,380.3,24.2z"/>
		<path class="st1" d="M34,217.9c-11,0-16.7-4.4-17.3-13.1H0c0.5,18,11.7,27.1,34,27.1c21.2,0,32.3-8,33.3-24.2
			c0.5-10.4-4-17.2-13.4-20.4c-7-2.4-13.7-4.3-20-5.7c-11-2.4-16.3-6.2-16.3-11.4c0.4-6.3,4.8-9.6,13.7-9.7c7.3,0,12.3,2.3,15.2,7
			c1.6,3.1,4.1,4.8,7.7,4.8h9.6c-1-17.1-11.2-25.6-31-25.6c-20.7-0.1-31.2,8.4-31.6,25.7c0,10.9,8.1,18.5,24.6,22.6
			c6,1.6,11.7,3,16.6,4.5c5.2,1.4,7.7,4.1,7.7,8.1C50.3,214.5,45,217.9,34,217.9L34,217.9z M98.6,218.7c-5.2,0-7.9-2.4-8.3-7.5
			c0-4.7,3.3-7.8,9.9-9c4.8-1,9.2-2.3,13.1-3.9v6C113.3,213.4,107.8,218.7,98.6,218.7z M102.5,178.7c6.8,0,10.2,1.8,10.6,5.4
			c0,3.5-3.6,5.6-10.6,6.4c-16.6,1.6-27.9,5.7-28.3,21.1c0,14.2,10.9,21.3,26.5,20.2c17.7-1.2,28.5-9.1,28.5-26.8v-21.9
			c-0.4-11.9-9.5-17.7-27.5-17.7c-15.1,0-23.6,5.8-25.6,17.7h16.4C93.5,180.1,96.7,178.7,102.5,178.7z M184.2,166.4
			c-4.1,0-6.8,2-8,5.7l-11.4,39.3l-13.2-45h-18.1l23,64.2h17.4l23.1-64.2H184.2z M258.3,211h-12.1c-2.2,0-4.1,0.7-5.6,2.3
			c-3.2,3-6.8,4.6-10.6,4.6c-8,0-12.4-5-13-14.8h42.2c1.2-25.1-8.5-37.6-29.3-37.6c-19.9,0.1-29.9,11.1-29.9,32.9
			c0,21.9,9.9,33.1,29.6,33.7C245.8,232.1,254.7,224.6,258.3,211z M229.7,178.7c7,0,11.1,4.4,12.1,12.8h-24.6
			C218.5,183.1,222.7,178.7,229.7,178.7z M430,202h-16.7c-1.8,9.1-8,14.9-18.8,14.9c-15.7,0-22.5-11.4-22.5-27.6
			c0-16.6,7.1-27.7,23-27.7c8.2,0,13.7,3,16.6,9c1.6,3.3,4.3,5,8,5H430c-0.9-9-4.2-16.2-10.1-21.4c-6.3-5.1-14.6-7.5-24.8-7.5
			c-26.5,0-40.1,16-40.1,42.6c0,25.7,12.8,42.5,38.6,42.5C414.8,231.8,428.4,221,430,202z M446.8,148.1h-8.5v82.5h16.4V156
			C454.7,151.7,451.1,148.1,446.8,148.1z M493.1,165.5c-19.8,0-29.6,11.1-29.6,33.4c0,22.1,9.9,33.3,29.6,33.3s29.8-11.2,29.8-33.3
			C522.8,176.5,512.8,165.5,493.1,165.5z M493.1,179.7c8.4,0,12.6,6.2,12.6,18.7c-0.1,12.8-4.3,19.3-12.7,19.3
			c-8.4,0-12.7-6.3-12.8-18.8C480.1,186.1,484.4,179.7,493.1,179.7z M585.7,166.4h-8.4c-5.4,0-8,2.7-7.9,8v33.8
			c0,7.2-3.7,10.7-11.1,10.7c-7.4,0-11.1-3.5-11.1-10.7v-41.9h-16.4V205c0,10.8,2.8,17.8,8.5,21.3c5.7,3.6,11.7,5.5,18.5,5.5
			c7.1,0,13.5-1.7,19.3-5c5.8-3.5,8.6-10.8,8.6-21.8V166.4z M622.9,179.9c8.9,0,13.4,6.1,13.8,18.4c0,13-4.7,19.5-14.1,19.5
			c-9.4,0-13.8-6.5-13.7-19.5C609.5,186,614,179.9,622.9,179.9z M644.9,148.1h-8.1v27.3c-4.2-6.7-10.5-9.9-18.7-9.9
			c-17.4,0.6-26.1,11.8-26.1,33.6c0,21.3,10.1,32.1,30.4,32.5c20.4,0.1,30.6-9.5,30.6-28.7v-46.6C653,151.9,649.4,148.1,644.9,148.1
			z"/>
		<path class="st0" d="M266.9,230.6h17.1v-82.5h-8.5c-5.8,0-8.6,3-8.6,8.9V230.6z M348.3,230.6v-37.7c0.1-18.3-9-27.4-27.7-27.4
			c-18.6,0-28,9.1-28,27.4v37.7h16.7v-41c0.1-6.7,3.8-9.9,11.1-9.9s11,3.3,11.3,9.9v33c0,5.1,2.7,7.7,8.2,8H348.3z"/>
	</g>
</g>
</svg>
